<?xml version="1.0" encoding="UTF-8"?><svg id="Layer_2" xmlns="http://www.w3.org/2000/svg" xmlns:xlink="http://www.w3.org/1999/xlink" viewBox="0 0 1904.87 677.11"><defs><style>.cls-1{fill:url(#linear-gradient);}.cls-2{fill:#fff;}.cls-3{fill:url(#linear-gradient-2);}.cls-4{stroke:#231f20;}.cls-4,.cls-5{fill:none;stroke-linecap:round;stroke-linejoin:round;stroke-width:3px;}.cls-5{stroke:#000;}</style><linearGradient id="linear-gradient" x1="2103.16" y1="4694.11" x2="2103.16" y2="3579.5" gradientTransform="translate(1879.6 4573.98) rotate(-180) scale(.71 1)" gradientUnits="userSpaceOnUse"><stop offset=".06" stop-color="#e3e3ff"/><stop offset=".29" stop-color="#ccf"/><stop offset=".37" stop-color="#b6affd"/><stop offset=".5" stop-color="#9382fb"/><stop offset=".64" stop-color="#c27be8"/><stop offset=".79" stop-color="#ee75d7"/><stop offset=".87" stop-color="#ff73d0"/></linearGradient><linearGradient id="linear-gradient-2" x1="1344.35" y1="4694.11" x2="1344.35" y2="3579.5" gradientTransform="translate(0 4573.98) scale(1 -1)" xlink:href="#linear-gradient"/></defs><g id="Layer_1-2"><g><g><g><g><g><path class="cls-1" d="M3.12,525.92c7.1-105.83,55.64-56.28,55.64-56.28,11.01-79.68,46.09-101.47,76.1-97.23l.27-1.05s4.74-62.99,52.69-81.47c47.95-18.48,79.91,44.51,79.91,44.51,19.56-24.31,37.75-31.58,53.86-29.32v-.07c15.98-105.84,72.81-35.29,72.81-35.29,0,0,18.35-104.11,74-111.89,6.06-.88,12.16-.91,18.22-.09l.07,.09s9.14-109.01,73.07-113.49c42.89-3.01,65.2,58.23,65.2,58.23l.1-.06c4.08-2.29,8.62-2.29,12.7,0l.14,.05c17.05-38.14,35.89-40.35,50.71-31.28v-.63c33.15-99.94,100.04-62.15,100.04-62.15V677.11H3.12v-151.19Z"/><path class="cls-4" d="M788.63,8.51s-66.89-37.79-100.04,62.16"/><path class="cls-4" d="M715.22,102.58s-42.42-78.11-77.32,0"/><path class="cls-4" d="M657.61,130.78s-22.23-62.53-49.59-6.72"/><path class="cls-4" d="M624.94,102.58s-22.33-61.24-65.2-58.23c-63.93,4.48-73.06,113.49-73.06,113.49"/></g><path class="cls-4" d="M554.81,214.3s-30.78-64.21-86.42-56.46c-55.64,7.75-74,111.89-74,111.89,0,0-56.83-70.55-72.81,35.29"/><path class="cls-4" d="M392.62,384.81s-53.28-139.43-124.9-50.41c0,0-31.97-62.99-79.91-44.51-47.94,18.48-52.69,81.47-52.69,81.47"/><path class="cls-4" d="M208.24,432.22s-21.84-40.32-60.04-56.13c-32.02-13.25-76.75,1.6-89.46,93.55,0,0-49.47-50.6-57.24,60.11"/></g><path class="cls-2" d="M267.21,524c-.19,0-.37-.1-.5-.29-.13-.19-.21-.44-.21-.71s.07-.52,.21-.71,.31-.29,.5-.29,.37,.11,.5,.29,.21,.44,.21,.71-.07,.52-.21,.71c-.13,.19-.31,.29-.5,.29Z"/><path class="cls-2" d="M314.25,395.92c-.19,0-.37-.11-.5-.29s-.21-.44-.21-.71,.07-.52,.21-.71c.13-.19,.31-.29,.5-.29s.37,.1,.5,.29,.21,.44,.21,.71-.07,.52-.21,.71c-.13,.19-.31,.29-.5,.29Z"/><path class="cls-2" d="M471.77,404.94c-.19,0-.37-.1-.5-.29-.13-.19-.21-.44-.21-.71s.07-.52,.21-.71c.13-.19,.31-.29,.5-.29s.37,.11,.5,.29,.21,.44,.21,.71-.07,.52-.21,.71c-.13,.19-.31,.29-.5,.29Z"/><path class="cls-2" d="M460.44,267.85c-.19,0-.37-.11-.5-.29-.13-.19-.21-.44-.21-.71s.07-.52,.21-.71c.13-.19,.31-.29,.5-.29s.37,.11,.5,.29c.13,.19,.21,.44,.21,.71s-.07,.52-.21,.71c-.13,.19-.31,.29-.5,.29Z"/><path class="cls-2" d="M634.6,370.67c-.19,0-.37-.11-.5-.29-.13-.19-.21-.44-.21-.71s.07-.52,.21-.71c.13-.19,.31-.29,.5-.29s.37,.1,.5,.29c.13,.19,.21,.44,.21,.71s-.07,.52-.21,.71c-.13,.19-.31,.29-.5,.29Z"/><path class="cls-2" d="M745.2,455.49c-.19,0-.37-.11-.5-.29-.13-.19-.21-.44-.21-.71s.07-.52,.21-.71c.13-.19,.31-.29,.5-.29s.37,.1,.5,.29c.13,.19,.21,.44,.21,.71s-.07,.52-.21,.71-.31,.29-.5,.29Z"/><path class="cls-2" d="M728.68,298.52c-.19,0-.37-.11-.5-.29-.13-.19-.21-.44-.21-.71s.07-.52,.21-.71c.13-.19,.31-.29,.5-.29s.37,.11,.5,.29c.13,.19,.21,.44,.21,.71s-.07,.52-.21,.71c-.13,.19-.31,.29-.5,.29Z"/><path class="cls-2" d="M364.91,320.72c-.19,0-.37-.11-.5-.29s-.21-.44-.21-.71,.07-.52,.21-.71c.13-.19,.31-.29,.5-.29s.37,.1,.5,.29c.13,.19,.21,.44,.21,.71s-.07,.52-.21,.71-.31,.29-.5,.29Z"/><path class="cls-2" d="M196.02,390.51c-.19,0-.37-.11-.5-.29-.13-.19-.21-.44-.21-.71s.07-.52,.21-.71c.13-.19,.31-.29,.5-.29s.37,.11,.5,.29c.13,.19,.21,.44,.21,.71s-.07,.52-.21,.71c-.13,.19-.31,.29-.5,.29Z"/><path class="cls-2" d="M127.38,433.81c-.19,0-.37-.1-.5-.29-.13-.19-.21-.44-.21-.71s.07-.52,.21-.71c.13-.19,.31-.29,.5-.29s.37,.11,.5,.29c.13,.19,.21,.44,.21,.71s-.07,.52-.21,.71c-.13,.19-.31,.29-.5,.29Z"/><path class="cls-2" d="M91.78,498.73c-.19,0-.37-.1-.5-.29-.13-.19-.21-.44-.21-.71s.07-.52,.21-.71c.13-.19,.31-.29,.5-.29s.37,.1,.5,.29c.13,.19,.21,.44,.21,.71s-.07,.52-.21,.71c-.13,.19-.31,.29-.5,.29Z"/><path class="cls-2" d="M360.01,480.09c-.19,0-.37-.11-.5-.29-.13-.19-.21-.44-.21-.71s.07-.52,.21-.71c.13-.19,.31-.29,.5-.29s.37,.11,.5,.29c.13,.19,.21,.44,.21,.71s-.07,.52-.21,.71c-.13,.19-.31,.29-.5,.29Z"/><path class="cls-2" d="M258.31,323.77c-.19,0-.37-.11-.5-.29s-.21-.44-.21-.71,.07-.52,.21-.71c.13-.19,.31-.29,.5-.29s.37,.11,.5,.29c.13,.19,.21,.44,.21,.71s-.07,.52-.21,.71-.31,.29-.5,.29Z"/></g><g><g><g><path class="cls-3" d="M1901.08,525.92c-10.06-105.83-78.87-56.28-78.87-56.28-15.6-79.68-65.34-101.47-107.87-97.23l-.38-1.05s-6.71-62.99-74.68-81.47c-67.97-18.48-113.27,44.51-113.27,44.51-27.73-24.31-53.51-31.58-76.34-29.32v-.07c-22.66-105.84-103.2-35.29-103.2-35.29,0,0-26.02-104.11-104.89-111.89-8.59-.88-17.24-.91-25.83-.09l-.1,.09s-12.95-109.01-103.58-113.49c-60.8-3.01-92.42,58.23-92.42,58.23l-.14-.06c-5.79-2.29-12.22-2.29-18.01,0l-.19,.05c-24.17-38.14-50.87-40.35-71.88-31.28v-.63c-46.98-99.94-141.8-62.15-141.8-62.15V677.11H1901.08v-151.19Z"/><path class="cls-4" d="M787.63,8.51s94.82-37.79,141.8,62.16"/><path class="cls-4" d="M891.68,102.58s60.13-78.11,109.6,0"/><path class="cls-4" d="M973.34,130.78s31.51-62.53,70.3-6.72"/><path class="cls-4" d="M1019.65,102.58s31.65-61.24,92.42-58.23c90.62,4.48,103.56,113.49,103.56,113.49"/></g><path class="cls-4" d="M1119.06,214.3s43.63-64.21,122.5-56.46c78.87,7.75,104.89,111.89,104.89,111.89,0,0,80.55-70.55,103.2,35.29"/><path class="cls-4" d="M1348.96,384.81s75.52-139.43,177.05-50.41c0,0,45.31-62.99,113.27-44.51,67.96,18.48,74.68,81.47,74.68,81.47"/><path class="cls-4" d="M1610.32,432.22s30.95-40.32,85.1-56.13c45.38-13.25,108.8,1.6,126.81,93.55,0,0,70.12-50.6,81.14,60.11"/></g><path class="cls-2" d="M1526.72,524c.26,0,.52-.1,.71-.29,.19-.19,.29-.44,.29-.71s-.11-.52-.29-.71-.44-.29-.71-.29-.52,.11-.71,.29-.29,.44-.29,.71,.1,.52,.29,.71c.19,.19,.44,.29,.71,.29Z"/><path class="cls-2" d="M1460.05,395.92c.26,0,.52-.11,.71-.29s.29-.44,.29-.71-.11-.52-.29-.71c-.19-.19-.44-.29-.71-.29s-.52,.1-.71,.29-.29,.44-.29,.71,.1,.52,.29,.71c.19,.19,.44,.29,.71,.29Z"/><path class="cls-2" d="M1236.77,404.94c.27,0,.52-.1,.71-.29,.19-.19,.29-.44,.29-.71s-.1-.52-.29-.71c-.19-.19-.44-.29-.71-.29s-.52,.11-.71,.29-.29,.44-.29,.71,.11,.52,.29,.71c.19,.19,.44,.29,.71,.29Z"/><path class="cls-2" d="M1252.83,267.85c.27,0,.52-.11,.71-.29,.19-.19,.29-.44,.29-.71s-.1-.52-.29-.71c-.19-.19-.44-.29-.71-.29s-.52,.11-.71,.29c-.19,.19-.29,.44-.29,.71s.11,.52,.29,.71c.19,.19,.44,.29,.71,.29Z"/><path class="cls-2" d="M1005.96,370.67c.26,0,.52-.11,.71-.29,.19-.19,.29-.44,.29-.71s-.1-.52-.29-.71c-.19-.19-.44-.29-.71-.29s-.52,.1-.71,.29c-.19,.19-.29,.44-.29,.71s.1,.52,.29,.71c.19,.19,.44,.29,.71,.29Z"/><path class="cls-2" d="M849.18,455.48c.27,0,.52-.11,.71-.29,.19-.19,.29-.44,.29-.71s-.11-.52-.29-.71c-.19-.19-.44-.29-.71-.29s-.52,.1-.71,.29c-.19,.19-.29,.44-.29,.71s.11,.52,.29,.71,.44,.29,.71,.29Z"/><path class="cls-2" d="M872.6,298.52c.27,0,.52-.11,.71-.29,.19-.19,.29-.44,.29-.71s-.11-.52-.29-.71c-.19-.19-.44-.29-.71-.29s-.52,.11-.71,.29c-.19,.19-.29,.44-.29,.71s.11,.52,.29,.71c.19,.19,.44,.29,.71,.29Z"/><path class="cls-2" d="M1388.24,320.72c.27,0,.52-.11,.71-.29s.29-.44,.29-.71-.1-.52-.29-.71c-.19-.19-.44-.29-.71-.29s-.52,.1-.71,.29c-.19,.19-.29,.44-.29,.71s.11,.52,.29,.71,.44,.29,.71,.29Z"/><path class="cls-2" d="M1627.64,390.51c.27,0,.52-.11,.71-.29,.19-.19,.29-.44,.29-.71s-.1-.52-.29-.71c-.19-.19-.44-.29-.71-.29s-.52,.11-.71,.29c-.19,.19-.29,.44-.29,.71s.1,.52,.29,.71c.19,.19,.44,.29,.71,.29Z"/><path class="cls-2" d="M1724.94,433.81c.26,0,.52-.1,.71-.29,.19-.19,.29-.44,.29-.71s-.11-.52-.29-.71c-.19-.19-.44-.29-.71-.29s-.52,.11-.71,.29c-.19,.19-.29,.44-.29,.71s.1,.52,.29,.71c.19,.19,.44,.29,.71,.29Z"/><path class="cls-2" d="M1775.4,498.73c.26,0,.52-.1,.71-.29,.19-.19,.29-.44,.29-.71s-.11-.52-.29-.71c-.19-.19-.44-.29-.71-.29s-.52,.1-.71,.29c-.19,.19-.29,.44-.29,.71s.1,.52,.29,.71c.19,.19,.44,.29,.71,.29Z"/><path class="cls-2" d="M1395.18,480.09c.27,0,.52-.11,.71-.29,.19-.19,.29-.44,.29-.71s-.11-.52-.29-.71c-.19-.19-.44-.29-.71-.29s-.52,.11-.71,.29c-.19,.19-.29,.44-.29,.71s.1,.52,.29,.71c.19,.19,.44,.29,.71,.29Z"/><path class="cls-2" d="M1539.34,323.77c.27,0,.52-.11,.71-.29s.29-.44,.29-.71-.1-.52-.29-.71c-.19-.19-.44-.29-.71-.29s-.52,.11-.71,.29c-.19,.19-.29,.44-.29,.71s.11,.52,.29,.71,.44,.29,.71,.29Z"/></g></g><path class="cls-5" d="M1668.25,466.42c-20.54,37.9-60.18,43.91-40.63,2.91,6.01-12.63,16.93-14.01,11.77-1.3-11.42,28.12-41.1,28.09-40.8,.49,.06-6.65,7.13-20.96,12.28-18.2,5.6,3-.46,11.68-5.93,15.49-12.23,8.52-33.22,12.61-43.1-13.84"/><path class="cls-5" d="M1261.39,276.64c-19.95,10.88-41.14-16.41-18.49-35.11,10.86-8.96,23.2-.14,15.82,10.84-13.03,19.39-65.42,7.82-37.2-25.67"/></g></g></svg>