<?xml version="1.0" encoding="UTF-8"?><svg id="Layer_2" xmlns="http://www.w3.org/2000/svg" xmlns:xlink="http://www.w3.org/1999/xlink" viewBox="0 0 1491.96 809.31"><defs><style>.cls-1{fill:url(#linear-gradient);}.cls-2{fill:#fff;}.cls-3{fill:url(#linear-gradient-2);}.cls-4{fill:none;stroke:#231f20;stroke-linecap:round;stroke-linejoin:round;stroke-width:3px;}</style><linearGradient id="linear-gradient" x1="-6163.49" y1="4816.75" x2="-6163.49" y2="3824.22" gradientTransform="translate(-2306.06 4820.17) rotate(-180) scale(.58 1)" gradientUnits="userSpaceOnUse"><stop offset="0" stop-color="#ccf"/><stop offset=".12" stop-color="#b6affd"/><stop offset=".34" stop-color="#9382fb"/><stop offset=".54" stop-color="#c57be7"/><stop offset=".73" stop-color="#ef75d6"/><stop offset=".83" stop-color="#ff73d0"/></linearGradient><linearGradient id="linear-gradient-2" x1="514.43" y1="4818.56" x2="514.43" y2="3816.04" gradientTransform="translate(0 4820.17) scale(1 -1)" xlink:href="#linear-gradient"/></defs><g id="Layer_1-2"><g><g><g><path class="cls-1" d="M1116.4,131.56c.35-.11,.71-.22,1.07-.32,15.09-4,34.24,11.04,56.78,69.79,0,0,36.35-78.96,70.76-17.62,14.82,26.43,16.96,79.8,16.96,79.8,0,0,26.76-54.67,47.07,28.46l.18,.8c10.83-28.37,29.16-53.3,59.66-45.38,41.72,10.86,58.6,88.51,58.6,88.51l.41,1.47c8.03-7.61,17.18-10.95,26.3-9.61,20.88,3.16,36.27,44.79,36.27,44.79v429.33h-472.77V6.16s74.15-32.19,98.72,124.48"/><path class="cls-4" d="M1078.78,195.98s35.86-150.35,95.47,5.04c0,0,36.35-78.96,70.76-17.62,14.82,26.43,16.96,79.8,16.96,79.8,0,0,27.14-55.43,47.5,30.24"/><path class="cls-4" d="M1034.34,3.1c23.59,.8,65.07,18.99,82.08,127.53"/><path class="cls-4" d="M1427.48,335.61s-16.88-77.65-58.58-88.52c-64.09-16.67-74.43,111.84-74.43,111.84"/><path class="cls-2" d="M1263.35,531.47c-.16,0-.3-.11-.41-.29-.1-.19-.17-.44-.17-.71s.06-.52,.17-.71c.11-.19,.25-.29,.41-.29s.3,.11,.41,.29c.1,.19,.17,.44,.17,.71s-.06,.52-.17,.71c-.11,.19-.25,.29-.41,.29Z"/><path class="cls-2" d="M1242.54,571.16c-.16,0-.3-.11-.41-.29-.1-.19-.17-.44-.17-.71s.06-.52,.17-.71c.11-.19,.25-.29,.41-.29s.3,.11,.41,.29c.1,.19,.17,.44,.17,.71s-.06,.52-.17,.71c-.11,.19-.25,.29-.41,.29Z"/><path class="cls-2" d="M1041.65,504.42c-.16,0-.3-.11-.41-.29-.11-.19-.17-.44-.17-.71s.06-.52,.17-.71c.11-.19,.25-.29,.41-.29s.3,.11,.4,.29c.11,.19,.17,.44,.17,.71s-.06,.52-.17,.71c-.1,.19-.25,.29-.4,.29Z"/><path class="cls-2" d="M1053.1,451.68c-.16,0-.3-.11-.41-.29-.1-.19-.17-.44-.17-.71s.06-.52,.17-.71c.11-.19,.25-.29,.41-.29s.3,.1,.41,.29c.1,.19,.17,.44,.17,.71s-.06,.52-.17,.71c-.11,.19-.25,.29-.41,.29Z"/><path class="cls-2" d="M1117.63,296.97c-.16,0-.3-.11-.41-.29-.1-.19-.17-.44-.17-.71s.06-.52,.17-.71c.11-.19,.25-.29,.41-.29s.3,.11,.41,.29c.1,.19,.17,.44,.17,.71s-.06,.52-.17,.71c-.11,.19-.25,.29-.41,.29Z"/><path class="cls-2" d="M1046.85,205.02c-.15,0-.3-.11-.4-.29-.11-.19-.17-.44-.17-.71s.06-.52,.17-.71c.1-.19,.25-.29,.4-.29s.3,.11,.41,.29c.11,.19,.17,.44,.17,.71s-.06,.52-.17,.71c-.11,.19-.25,.29-.41,.29Z"/><path class="cls-2" d="M1040.61,64.27c-.16,0-.3-.11-.41-.29-.11-.19-.17-.44-.17-.71s.06-.52,.17-.71c.11-.19,.25-.29,.41-.29s.3,.11,.4,.29c.11,.19,.17,.44,.17,.71s-.06,.52-.17,.71c-.1,.19-.25,.29-.4,.29Z"/><path class="cls-2" d="M1047.89,349.28c-.15,0-.3-.1-.4-.29-.11-.19-.17-.44-.17-.71s.06-.52,.17-.71c.1-.19,.25-.29,.4-.29s.3,.11,.41,.29c.11,.19,.17,.44,.17,.71s-.06,.52-.17,.71c-.11,.19-.25,.29-.41,.29Z"/><path class="cls-2" d="M1249.82,484.57c-.16,0-.3-.11-.41-.29-.11-.19-.17-.44-.17-.71s.06-.52,.17-.71c.11-.19,.25-.29,.41-.29s.3,.11,.41,.29c.1,.19,.17,.44,.17,.71s-.06,.52-.17,.71c-.11,.19-.26,.29-.41,.29Z"/><path class="cls-2" d="M1266.47,329.44c-.16,0-.3-.11-.41-.29-.1-.19-.17-.44-.17-.71s.06-.52,.17-.71c.11-.19,.25-.29,.41-.29s.3,.11,.41,.29c.1,.19,.17,.44,.17,.71s-.06,.52-.17,.71c-.11,.19-.25,.29-.41,.29Z"/><path class="cls-2" d="M1301.86,459.32c-.15,0-.3-.11-.41-.29-.11-.19-.17-.44-.17-.71s.06-.52,.17-.71c.11-.19,.26-.29,.41-.29s.3,.1,.41,.29c.11,.19,.17,.44,.17,.71s-.06,.52-.17,.71c-.11,.19-.26,.29-.41,.29Z"/><path class="cls-2" d="M1339.32,340.26c-.15,0-.3-.1-.41-.29-.11-.19-.17-.44-.17-.71s.06-.52,.17-.71c.11-.19,.26-.29,.41-.29s.3,.1,.41,.29c.11,.19,.17,.44,.17,.71s-.06,.52-.17,.71c-.11,.19-.26,.29-.41,.29Z"/><path class="cls-2" d="M1457.99,423.25c-.15,0-.3-.11-.41-.29-.11-.19-.17-.44-.17-.71s.06-.52,.17-.71,.26-.29,.41-.29,.3,.11,.41,.29,.17,.44,.17,.71-.06,.52-.17,.71c-.11,.19-.26,.29-.41,.29Z"/><path class="cls-2" d="M1353.91,410.62c-.15,0-.3-.1-.41-.29-.11-.19-.17-.44-.17-.71s.06-.52,.17-.71c.11-.19,.26-.29,.41-.29s.3,.11,.41,.29c.11,.19,.17,.44,.17,.71s-.06,.52-.17,.71c-.11,.19-.26,.29-.41,.29Z"/><path class="cls-2" d="M1377.85,305.99c-.15,0-.3-.1-.41-.29-.11-.19-.17-.44-.17-.71s.06-.52,.17-.71,.26-.29,.41-.29,.3,.11,.41,.29c.11,.19,.17,.44,.17,.71s-.06,.52-.17,.71c-.11,.19-.26,.29-.41,.29Z"/><path class="cls-2" d="M1147.82,235.64c-.16,0-.3-.1-.41-.29-.11-.19-.17-.44-.17-.71s.06-.52,.17-.71c.11-.19,.25-.29,.41-.29s.3,.11,.4,.29c.11,.19,.17,.44,.17,.71s-.06,.52-.17,.71c-.1,.19-.25,.29-.4,.29Z"/></g><path class="cls-4" d="M1490.46,372.3s-15.39-41.64-36.27-44.79c-29.11-4.39-46.33,39.83-46.33,39.83"/></g><g><g><path class="cls-3" d="M847.83,131.56c-.61-.11-1.23-.22-1.86-.32-26.13-4-59.28,11.04-98.3,69.79,0,0-62.93-78.96-122.51-17.62-25.65,26.43-29.36,79.8-29.36,79.8,0,0-46.33-54.67-81.49,28.46l-.32,.8c-18.75-28.37-50.49-53.3-103.29-45.38-72.22,10.86-101.45,88.51-101.45,88.51l-.71,1.47c-13.9-7.61-29.74-10.95-45.53-9.61-36.15,3.16-61.34,42.79-61.34,42.79,0,0-9.31,14.02-5.75,32.25,0,0-96.44-13.77-90.78,73.34,0,0-148.77,40.89-77.66,151.11,0,0-57.78,51.56-3.56,124.44,0,0-18.95,56.41,68.3,56.41l926.48-6.22L1028.14,3.29s-136.44-26.11-180.34,127.34"/><path class="cls-4" d="M912.96,195.98s-62.08-150.35-165.29,5.04c0,0-62.93-78.96-122.51-17.62-25.65,26.43-29.36,79.8-29.36,79.8,0,0-46.99-55.43-82.23,30.24"/><path class="cls-4" d="M1039.33,3.76s-149.01-29.8-191.53,126.87"/><path class="cls-4" d="M309.28,335.61s29.22-77.65,101.42-88.52c110.96-16.67,128.86,111.84,128.86,111.84"/><path class="cls-2" d="M593.42,531.47c.27,0,.52-.11,.71-.29,.18-.19,.29-.44,.29-.71s-.11-.52-.29-.71c-.19-.19-.44-.29-.71-.29s-.52,.11-.71,.29c-.18,.19-.29,.44-.29,.71s.11,.52,.29,.71c.19,.19,.44,.29,.71,.29Z"/><path class="cls-2" d="M629.46,571.16c.27,0,.52-.11,.71-.29,.18-.19,.29-.44,.29-.71s-.11-.52-.29-.71c-.19-.19-.44-.29-.71-.29s-.52,.11-.71,.29c-.18,.19-.29,.44-.29,.71s.11,.52,.29,.71c.19,.19,.44,.29,.71,.29Z"/><path class="cls-2" d="M977.24,504.42c.27,0,.52-.11,.71-.29,.19-.19,.29-.44,.29-.71s-.1-.52-.29-.71c-.19-.19-.44-.29-.71-.29s-.52,.11-.7,.29c-.19,.19-.3,.44-.3,.71s.11,.52,.3,.71c.18,.19,.44,.29,.7,.29Z"/><path class="cls-2" d="M957.42,451.68c.27,0,.52-.11,.71-.29,.18-.19,.29-.44,.29-.71s-.11-.52-.29-.71c-.19-.19-.44-.29-.71-.29s-.52,.1-.71,.29c-.18,.19-.29,.44-.29,.71s.11,.52,.29,.71c.19,.19,.44,.29,.71,.29Z"/><path class="cls-2" d="M845.7,296.97c.27,0,.52-.11,.71-.29,.18-.19,.29-.44,.29-.71s-.11-.52-.29-.71c-.19-.19-.44-.29-.71-.29s-.52,.11-.71,.29c-.18,.19-.29,.44-.29,.71s.11,.52,.29,.71c.19,.19,.44,.29,.71,.29Z"/><path class="cls-2" d="M968.24,205.02c.26,0,.52-.11,.7-.29,.19-.19,.3-.44,.3-.71s-.11-.52-.3-.71c-.18-.19-.44-.29-.7-.29s-.52,.11-.71,.29c-.19,.19-.29,.44-.29,.71s.1,.52,.29,.71c.19,.19,.44,.29,.71,.29Z"/><path class="cls-2" d="M979.04,64.27c.27,0,.52-.11,.71-.29,.19-.19,.29-.44,.29-.71s-.1-.52-.29-.71c-.19-.19-.44-.29-.71-.29s-.52,.11-.7,.29c-.19,.19-.3,.44-.3,.71s.11,.52,.3,.71c.18,.19,.44,.29,.7,.29Z"/><path class="cls-2" d="M966.44,349.28c.26,0,.52-.1,.7-.29,.19-.19,.3-.44,.3-.71s-.11-.52-.3-.71c-.18-.19-.44-.29-.7-.29s-.52,.11-.71,.29c-.19,.19-.29,.44-.29,.71s.1,.52,.29,.71c.19,.19,.44,.29,.71,.29Z"/><path class="cls-2" d="M616.85,484.57c.27,0,.52-.11,.71-.29,.19-.19,.29-.44,.29-.71s-.1-.52-.29-.71c-.19-.19-.44-.29-.71-.29s-.52,.11-.71,.29c-.18,.19-.29,.44-.29,.71s.11,.52,.29,.71c.19,.19,.45,.29,.71,.29Z"/><path class="cls-2" d="M588.02,329.44c.27,0,.52-.11,.71-.29,.18-.19,.29-.44,.29-.71s-.11-.52-.29-.71c-.19-.19-.44-.29-.71-.29s-.52,.11-.71,.29c-.18,.19-.29,.44-.29,.71s.11,.52,.29,.71c.19,.19,.44,.29,.71,.29Z"/><path class="cls-2" d="M526.75,459.32c.27,0,.52-.11,.71-.29,.19-.19,.29-.44,.29-.71s-.1-.52-.29-.71c-.19-.19-.44-.29-.71-.29s-.52,.1-.71,.29c-.19,.19-.29,.44-.29,.71s.1,.52,.29,.71c.19,.19,.44,.29,.71,.29Z"/><path class="cls-2" d="M461.9,340.26c.27,0,.52-.1,.71-.29,.19-.19,.29-.44,.29-.71s-.1-.52-.29-.71c-.19-.19-.44-.29-.71-.29s-.52,.1-.71,.29c-.19,.19-.29,.44-.29,.71s.11,.52,.29,.71c.19,.19,.44,.29,.71,.29Z"/><path class="cls-2" d="M256.46,423.25c.27,0,.52-.11,.71-.29,.19-.19,.29-.44,.29-.71s-.1-.52-.29-.71-.44-.29-.71-.29-.52,.11-.71,.29-.29,.44-.29,.71,.11,.52,.29,.71c.19,.19,.44,.29,.71,.29Z"/><path class="cls-2" d="M436.66,410.62c.27,0,.52-.1,.71-.29,.19-.19,.29-.44,.29-.71s-.11-.52-.29-.71c-.19-.19-.44-.29-.71-.29s-.52,.11-.71,.29c-.19,.19-.29,.44-.29,.71s.1,.52,.29,.71c.19,.19,.44,.29,.71,.29Z"/><path class="cls-2" d="M395.21,305.99c.27,0,.52-.1,.71-.29,.19-.19,.29-.44,.29-.71s-.1-.52-.29-.71-.44-.29-.71-.29-.52,.11-.71,.29c-.19,.19-.29,.44-.29,.71s.1,.52,.29,.71c.19,.19,.44,.29,.71,.29Z"/><path class="cls-2" d="M793.44,235.64c.27,0,.52-.1,.71-.29,.19-.19,.29-.44,.29-.71s-.1-.52-.29-.71c-.19-.19-.44-.29-.71-.29s-.52,.11-.7,.29c-.19,.19-.3,.44-.3,.71s.11,.52,.3,.71c.18,.19,.44,.29,.7,.29Z"/></g><path class="cls-4" d="M72.37,807.81c-63.33-9.15-48.44-56.41-48.44-56.41-52.44-68.22,3.56-124.44,3.56-124.44-70.89-110.67,77.66-151.11,77.66-151.11-7.88-86.22,90.78-73.34,90.78-73.34-4.44-18.01,5.78-32.21,5.78-32.21,0,0,25.19-39.64,61.34-42.79,50.4-4.39,80.2,39.83,80.2,39.83"/></g></g></g></svg>