<?xml version="1.0" encoding="UTF-8"?>
<svg id="_Слой_1" data-name="Слой 1" xmlns="http://www.w3.org/2000/svg" viewBox="0 0 494.56 131.46">
  <defs>
    <style>
      .cls-1 {
        fill: #fff;
        stroke-width: 0px;
      }
    </style>
  </defs>
  <path class="cls-1" d="m92.55,80.55c-5.1,6.32-14.48,10.54-27.2,10.54-19.51,0-31.62-9.25-31.62-25.36s12.1-25.36,31.62-25.36c11.76,0,20.26,4.15,25.23,8.77l-10.13,7.48c-4.08-3.67-8.36-5.3-14.75-5.3-11.56,0-17.88,5.1-17.88,14.42s6.53,14.48,18.09,14.48c5.85,0,10.47-1.16,13.8-4.22v-4.28h-15.77v-9.72h28.62v18.56Z"/>
  <path class="cls-1" d="m141.78,89.53l-12.58-15.03h-14.01v15.03h-13.8v-47.6h33.38c12.17,0,21.62,5.37,21.62,16.25,0,7.96-5.03,12.99-12.51,15.16l14.01,16.18h-16.11Zm-8.02-25.09c4.96,0,8.57-1.36,8.57-5.98s-3.6-5.98-8.57-5.98h-18.63v11.97h18.63Z"/>
  <path class="cls-1" d="m172.25,41.93l13.87,20.53,13.8-20.53h15.43l-22.37,31.55v16.05h-13.87v-16.05l-22.37-31.55h15.5Z"/>
  <path class="cls-1" d="m261.05,89.53l-15.98-20.47-10.54,9.38v11.08h-13.87v-47.6h13.87v22.03l24.34-22.03h17.27l-21.15,18.97,22.37,28.62h-16.32Z"/>
  <path class="cls-1" d="m336.8,41.93v25.16c0,14.48-9.86,24-27.61,24s-27.67-9.52-27.67-24v-25.16h13.87v24.07c0,8.3,4.62,13.67,13.8,13.67s13.73-5.37,13.73-13.67v-24.07h13.87Z"/>
  <path class="cls-1" d="m403.03,76.47c0,8.23-7.41,13.05-19.11,13.05h-36.78v-47.6h34.06c11.7,0,19.11,4.69,19.11,12.31,0,5.37-3.74,10.06-10.88,10.47,7.48.48,13.6,4.42,13.6,11.76Zm-42.16-15.57h18.02c4.62,0,7.68-1.02,7.68-4.69s-3.06-4.62-7.68-4.62h-18.02v9.31Zm27.95,13.94c0-3.88-2.92-4.96-7.82-4.96h-20.13v10h20.13c4.89,0,7.82-1.16,7.82-5.03Z"/>
  <path class="cls-1" d="m417.72,41.93l13.87,20.53,13.8-20.53h15.43l-22.37,31.55v16.05h-13.87v-16.05l-22.37-31.55h15.5Z"/>
</svg>