<?xml version="1.0" encoding="UTF-8"?><svg id="Layer_2" xmlns="http://www.w3.org/2000/svg" xmlns:xlink="http://www.w3.org/1999/xlink" viewBox="0 0 1137.54 300.31"><defs><style>.cls-1{fill:url(#linear-gradient);}.cls-2{fill:#fff;}.cls-3{fill:url(#linear-gradient-2);}.cls-4{fill:none;stroke:#231f20;stroke-linecap:round;stroke-linejoin:round;stroke-width:3px;}</style><linearGradient id="linear-gradient" x1="295.28" y1="3952.23" x2="432.93" y2="3253.69" gradientTransform="translate(0 3791.97) scale(1 -1)" gradientUnits="userSpaceOnUse"><stop offset=".18" stop-color="#e3e3ff"/><stop offset=".3" stop-color="#ccf"/><stop offset=".38" stop-color="#b6affd"/><stop offset=".5" stop-color="#9382fb"/><stop offset=".69" stop-color="#c27be8"/><stop offset=".89" stop-color="#ee75d7"/><stop offset=".99" stop-color="#ff73d0"/></linearGradient><linearGradient id="linear-gradient-2" x1="594.32" y1="3952.23" x2="731.97" y2="3253.69" gradientTransform="translate(1315.32 3791.97) rotate(-180) scale(.6 1)" xlink:href="#linear-gradient"/></defs><g id="Layer_1-2"><g><g><path class="cls-1" d="M696.22,8.56s-54.53-30.23-69.6,34.44c0,0-83.07-68.07-154.4-27.73-71.32,40.35-52.85,146.15-52.85,146.15,0,0-75.52-73.92-118.31,41.99,0,0-70.48-97.43-160.27,16.82,0,0-91.46-68.87-139.29,52.92v27.15H712.76V6.88l-16.5,1.67"/><path class="cls-4" d="M712.01,7.14l-15.8,1.42s-54.53-30.23-69.6,34.44c0,0-83.07-68.07-154.4-27.73-71.32,40.35-52.85,146.15-52.85,146.15,0,0-75.52-73.92-118.31,41.99,0,0-70.48-97.43-160.27,16.82,0,0-91.46-68.87-139.29,52.92"/><path class="cls-2" d="M520.24,77.07c.27,0,.52-.1,.71-.29,.18-.19,.29-.44,.29-.71s-.11-.52-.29-.71c-.19-.19-.44-.29-.71-.29s-.52,.11-.71,.29c-.18,.19-.29,.44-.29,.71s.11,.52,.29,.71c.19,.19,.44,.29,.71,.29Z"/><path class="cls-2" d="M570.7,158.24c.26,0,.52-.11,.7-.29,.19-.19,.3-.44,.3-.71s-.11-.52-.3-.71c-.18-.19-.44-.29-.7-.29s-.52,.11-.71,.29c-.19,.19-.29,.44-.29,.71s.1,.52,.29,.71c.19,.19,.44,.29,.71,.29Z"/></g><g><path class="cls-3" d="M721.62,8.56s32.53-30.23,41.52,34.44c0,0,49.55-68.07,92.1-27.73,42.54,40.35,31.53,146.15,31.53,146.15,0,0,45.05-73.92,70.58,41.99,0,0,42.05-97.43,95.6,16.82,0,0,54.56-68.87,83.09,52.92v27.15h-424.29V6.88l9.84,1.67"/><path class="cls-4" d="M711.89,7.16l9.73,1.4s32.53-30.23,41.52,34.44c0,0,49.55-68.07,92.1-27.73,42.54,40.35,31.53,146.15,31.53,146.15,0,0,45.05-73.92,70.58,41.99,0,0,42.05-97.43,95.6,16.82,0,0,54.56-68.87,83.09,52.92"/><path class="cls-2" d="M826.6,77.07c-.16,0-.31-.1-.42-.29-.11-.19-.17-.44-.17-.71s.07-.52,.17-.71c.11-.19,.26-.29,.42-.29s.31,.11,.42,.29c.11,.19,.17,.44,.17,.71s-.07,.52-.17,.71c-.11,.19-.26,.29-.42,.29Z"/><path class="cls-2" d="M796.5,158.24c-.16,0-.31-.11-.42-.29-.11-.19-.18-.44-.18-.71s.07-.52,.18-.71c.11-.19,.26-.29,.42-.29s.31,.11,.42,.29c.11,.19,.17,.44,.17,.71s-.06,.52-.17,.71c-.11,.19-.26,.29-.42,.29Z"/></g></g></g></svg>