<?xml version="1.0" encoding="UTF-8"?><svg id="Layer_2" xmlns="http://www.w3.org/2000/svg" viewBox="0 0 128.21 74.22"><defs><style>.cls-1{stroke-miterlimit:10;}.cls-1,.cls-2,.cls-3{fill:none;stroke:#000;}.cls-1,.cls-3{stroke-width:3px;}.cls-4{fill:#fff;}.cls-5{fill:#ef42ff;}.cls-6{fill:#c7d0f9;}.cls-7{fill:#5090ef;}.cls-2{stroke-width:2px;}.cls-2,.cls-3{stroke-linecap:round;stroke-linejoin:round;}</style></defs><g id="Layer_1-2"><g><path class="cls-7" d="M93.8,33.43c18.82-1.67,32-.12,33.05,4.69,1.6,7.3-25.35,19.36-60.16,26.93-34.81,7.57-64.3,7.77-65.89,.47-1.06-4.85,10.48-11.82,28.54-18.14l64.46-13.95Z"/><path class="cls-5" d="M126.85,38.12s4.8,9.27-31.71,21.62C20.54,85.07,2.47,69.18,1.83,68.16c-.65-1.03-.94-4.33-.94-4.33,0,0,8,8.95,43.88,2.88,35.88-6.08,54.5-13.78,56.8-14.85,18.58-8.71,25.28-13.74,25.28-13.74Z"/><path class="cls-6" d="M52.98,.95C21.92,7.7,28.31,44.35,29.78,51.11c.06,.32,.23,.6,.47,.82,.24,.21,.54,.35,.86,.38,30.23,3.2,57.6-10.73,63.02-13.71,.29-.16,.51-.4,.65-.7,.14-.3,.17-.63,.1-.95-1.5-6.84-10.89-42.72-41.9-35.98Z"/><path class="cls-4" d="M36.92,36.88s-2.15-5.49,1.28-13.07c2.94-6.47,6.52-3.7,5.46-.04-1.46,5.02-1.6,9.55-1.5,14.3,.06,2.7-3.7,4.76-5.24-1.19Z"/><path class="cls-4" d="M46.36,16.13c-.71,.54-3.09,1.35-3.2-1.4s2.61-4.13,3.84-3.43c.74,.4,1.32,3.35-.64,4.84Z"/><path class="cls-1" d="M36.92,36.88s-2.15-5.49,1.28-13.07c2.94-6.47,6.52-3.7,5.46-.04-1.46,5.02-1.6,9.55-1.5,14.3,.06,2.7-3.7,4.76-5.24-1.19Z"/><path class="cls-1" d="M46.36,16.13c-.71,.54-3.09,1.35-3.2-1.4s2.61-4.13,3.84-3.43c.74,.4,1.32,3.35-.64,4.84Z"/><path class="cls-2" d="M93.8,33.43c18.88-1.41,32.16,.62,33.32,5.97,1.77,8.13-25.02,20.82-59.83,28.41-34.81,7.59-64.45,7.1-66.21-1.02-1.18-5.4,10.26-12.81,28.27-19.42"/><path d="M60.44,2.51c22.5,0,30.3,27.23,31.94,34.28-5.42,2.9-27.14,13.57-52.18,13.57-2.78,0-5.54-.13-8.22-.39-.74-3.66-2.36-13.61-.45-23.5,2.47-12.76,9.86-20.56,21.95-23.22,2.28-.51,4.61-.78,6.95-.8M60.44,.06c-2.51,0-5.01,.27-7.46,.8C21.92,7.6,28.31,44.25,29.78,51.01c.06,.32,.23,.6,.47,.82,.24,.21,.54,.35,.86,.38,3.03,.32,6.07,.48,9.11,.47,26.45,0,49.02-11.51,53.91-14.18,.29-.16,.51-.4,.65-.7,.14-.3,.17-.63,.1-.95C93.51,30.58,85.54,0,60.48,0l-.04,.06Z"/><path class="cls-2" d="M125.99,36.88c-2.72,7.36-28,18.08-60,25.03-31.7,6.89-58.98,7.68-64.8,2.26"/><path class="cls-3" d="M94.77,37.9s11.06,.54,19.61,7.86"/><path class="cls-3" d="M72.79,47.54c4.67,1.72,8.59,5.03,11.06,9.36"/><path class="cls-3" d="M54.21,51.57c-3.54,3.5-5.73,8.13-6.2,13.09"/><path class="cls-3" d="M30.23,51.93s-9.84,5.09-14.58,15.3"/></g></g></svg>