<?xml version="1.0" encoding="UTF-8"?>
<svg id="_Слой_1" data-name="Слой 1" xmlns="http://www.w3.org/2000/svg" viewBox="0 0 33.29 33.29">
  <defs>
    <style>
      .cls-1 {
        fill: #4d4f9d;
        stroke-width: 0px;
      }
    </style>
  </defs>
  <path class="cls-1" d="m26.36,7.76c-1.84-.85-3.78-1.45-5.78-1.78-.25.44-.54,1.04-.74,1.52-2.12-.32-4.28-.32-6.4,0-.23-.52-.48-1.03-.76-1.52-2,.34-3.94.94-5.78,1.79-3.64,5.43-4.63,10.74-4.14,15.96,2.14,1.59,4.54,2.8,7.09,3.58.57-.78,1.08-1.6,1.52-2.46-.83-.31-1.63-.69-2.39-1.14.2-.15.39-.3.58-.45,4.49,2.12,9.69,2.12,14.17,0,.19.16.39.31.58.46-.76.45-1.56.84-2.39,1.15.44.86.94,1.68,1.52,2.46,2.55-.77,4.95-1.98,7.09-3.58.58-6.06-1-11.31-4.17-15.97Zm-14.37,12.76c-1.38,0-2.52-1.27-2.52-2.82s1.11-2.83,2.52-2.83,2.53,1.27,2.52,2.82-1.11,2.83-2.52,2.83Zm9.3,0c-1.38,0-2.52-1.27-2.52-2.82s1.11-2.83,2.52-2.83,2.53,1.27,2.52,2.82-1.11,2.83-2.52,2.83Z"/>
</svg>