<?xml version="1.0" encoding="UTF-8"?>
<svg id="_Слой_1" data-name="Слой 1" xmlns="http://www.w3.org/2000/svg" viewBox="0 0 33.29 33.29">
  <defs>
    <style>
      .cls-1 {
        fill: #4d4f9d;
        stroke-width: 0px;
      }
    </style>
  </defs>
  <path class="cls-1" d="m30.37,7.86c-.03.05-.07.1-.11.15l-9.56,10.85c-1.03,1.16-2.5,1.83-4.05,1.83-1.55,0-3.03-.67-4.06-1.83L2.91,7.88c-.17.4-.27.84-.27,1.3v12.43c0,3.21,2.6,5.81,5.81,5.81h16.38c3.21,0,5.81-2.6,5.81-5.81v-12.43c0-.47-.1-.91-.28-1.32Z"/>
  <path class="cls-1" d="m14.76,16.94c.48.55,1.15.85,1.88.85s1.39-.3,1.88-.85l9.56-10.85s.07-.07.11-.1c-.27-.07-.56-.11-.85-.11H5.94c-.29,0-.57.04-.83.11l9.65,10.95Z"/>
</svg>