<?xml version="1.0" encoding="UTF-8"?>
<svg id="_Слой_1" data-name="Слой 1" xmlns="http://www.w3.org/2000/svg" viewBox="0 0 33.29 33.29">
  <defs>
    <style>
      .cls-1 {
        fill: #4d4f9d;
        stroke-width: 0px;
      }
    </style>
  </defs>
  <path class="cls-1" d="m23.93,7.8c-.89,0-1.61.72-1.61,1.61s.72,1.61,1.61,1.61,1.61-.72,1.61-1.61-.72-1.61-1.61-1.61Z"/>
  <path class="cls-1" d="m16.76,9.87c-3.74,0-6.78,3.04-6.78,6.78s3.04,6.78,6.78,6.78,6.78-3.04,6.78-6.78-3.04-6.78-6.78-6.78Zm0,11.12c-2.39,0-4.34-1.95-4.34-4.34s1.95-4.34,4.34-4.34,4.34,1.95,4.34,4.34-1.95,4.34-4.34,4.34Z"/>
  <path class="cls-1" d="m22.14,30.41h-10.99c-4.56,0-8.27-3.71-8.27-8.27v-10.99C2.89,6.6,6.6,2.89,11.15,2.89h10.99c4.56,0,8.27,3.71,8.27,8.27v10.99c0,4.56-3.71,8.27-8.27,8.27ZM11.15,5.48c-3.13,0-5.68,2.55-5.68,5.68v10.99c0,3.13,2.55,5.68,5.68,5.68h10.99c3.13,0,5.68-2.55,5.68-5.68v-10.99c0-3.13-2.55-5.68-5.68-5.68h-10.99Z"/>
</svg>