<?xml version="1.0" encoding="UTF-8"?>
<svg id="_Слой_1" data-name="Слой 1" xmlns="http://www.w3.org/2000/svg" viewBox="0 0 33.29 33.29">
  <defs>
    <style>
      .cls-1 {
        fill: #4d4f9d;
        stroke-width: 0px;
      }
    </style>
  </defs>
  <path class="cls-1" d="m16.65,3.15c-7.6,0-13.5,5.57-13.5,13.09,0,3.94,1.61,7.34,4.24,9.69.22.2.35.47.36.77l.07,2.4c.02.6.52,1.06,1.11,1.05.14,0,.28-.04.4-.09l2.68-1.18c.23-.1.48-.12.72-.05,1.23.34,2.54.52,3.91.52,7.6,0,13.5-5.57,13.5-13.1S24.25,3.15,16.65,3.15Zm8.11,10.08l-3.97,6.29c-.6.95-1.85,1.23-2.79.63-.05-.03-.09-.06-.14-.09l-3.16-2.37c-.29-.22-.69-.22-.98,0l-4.26,3.23c-.57.43-1.31-.25-.93-.85l3.97-6.29c.6-.95,1.85-1.23,2.79-.63.05.03.09.06.14.09l3.16,2.37c.29.22.69.22.98,0l4.26-3.23c.57-.43,1.31.25.93.85Z"/>
</svg>