<?xml version="1.0" encoding="UTF-8"?>
<svg id="_Слой_1" data-name="Слой 1" xmlns="http://www.w3.org/2000/svg" viewBox="0 0 33.29 33.29">
  <defs>
    <style>
      .cls-1 {
        fill: #4d4f9d;
        stroke-width: 0px;
      }
    </style>
  </defs>
  <path class="cls-1" d="m4.36,15.15s12.38-5.08,16.68-6.87c1.65-.72,7.23-3.01,7.23-3.01,0,0,2.58-1,2.36,1.43-.07,1-.64,4.51-1.22,8.3-.86,5.37-1.79,11.24-1.79,11.24,0,0-.14,1.65-1.36,1.93-1.22.29-3.22-1-3.58-1.29-.29-.21-5.37-3.44-7.23-5.01-.5-.43-1.07-1.29.07-2.29,2.58-2.36,5.66-5.3,7.52-7.16.86-.86,1.72-2.86-1.86-.43-5.08,3.51-10.09,6.8-10.09,6.8,0,0-1.15.72-3.29.07-2.15-.64-4.65-1.5-4.65-1.5,0,0-1.72-1.07,1.22-2.22h0Z"/>
</svg>