<?xml version="1.0" encoding="UTF-8"?>
<svg id="_Слой_1" data-name="Слой 1" xmlns="http://www.w3.org/2000/svg" viewBox="0 0 33.29 33.29">
  <defs>
    <style>
      .cls-1 {
        fill: #4d4f9d;
        stroke-width: 0px;
      }
    </style>
  </defs>
  <path class="cls-1" d="m27.64,14.19c-.21.02-.42.03-.63.03-2.32,0-4.47-1.17-5.74-3.1v10.57c0,4.31-3.5,7.81-7.81,7.81s-7.81-3.5-7.81-7.81,3.5-7.81,7.81-7.81h0c.16,0,.32.01.48.02v3.85c-.16-.02-.32-.05-.48-.05-2.2,0-3.99,1.78-3.99,3.99s1.78,3.99,3.99,3.99,4.15-1.73,4.15-3.94l.04-17.95h3.68c.35,3.3,3.01,5.88,6.32,6.12v4.28"/>
</svg>